<svg xmlns="http://www.w3.org/2000/svg" viewBox="0 0 24 24" fill="#2563eb">
    <path d="M11.721 1.751a.75.75 0 01.558 0l10.5 6.062a.75.75 0 010 1.322l-10.5 6.062a.75.75 0 01-.558 0L1.22 9.135a.75.75 0 010-1.322L11.72 1.75z" />
    <path d="M12 15.063a.75.75 0 01.393.099l3.75 2.165a.75.75 0 010 1.322l-3.75 2.165a.75.75 0 01-.786 0l-3.75-2.165a.75.75 0 010-1.322l3.75-2.165A.75.75 0 0112 15.063zM14.625 15v.038a.75.75 0 01-.393.658l-3.75 2.166a.75.75 0 01-.786 0l-3.75-2.166a.75.75 0 01-.393-.658V15a.75.75 0 01.393-.658l3.75-2.166a.75.75 0 01.786 0l3.75 2.166A.75.75 0 0114.625 15z" />
</svg>
